<?xml version="1.0" encoding="UTF-8"?>
<svg width="191px" height="41px" viewBox="0 0 191 41" version="1.1" xmlns="http://www.w3.org/2000/svg" xmlns:xlink="http://www.w3.org/1999/xlink">
    <!-- Generator: sketchtool 60 (101010) - https://sketch.com -->
    <title>98641604-7162-4D55-8A84-4770103F3BB9</title>
    <desc>Created with sketchtool.</desc>
    <g id="Page-1" stroke="none" stroke-width="1" fill="none" fill-rule="evenodd">
        <g id="01---Investor-Landing" transform="translate(-163.000000, -78.000000)" fill="#0033A1" fill-rule="nonzero">
            <g id="Nav" transform="translate(0.000000, 0.000000)">
                <g id="COG-Logo-White" transform="translate(163.000000, 78.000000)">
                    <polygon id="Path" points="110 24.8685832 121.636364 14.073922 110.166667 14.073922 110.166667 9 129.772727 9 129.772727 14.1601643 118.136364 24.9117043 130 24.9117043 130 30 110 30"></polygon>
                    <rect id="Rectangle" x="103" y="2" width="6" height="5"></rect>
                    <rect id="Rectangle" x="103" y="9" width="6" height="21"></rect>
                    <path d="M31.014531,18.9636487 C31.043593,12.8856935 35.9841334,7.98552385 42.0435608,8.00003213 C48.1175193,8.02914554 53.0144666,12.9729369 52.9999679,19.0363515 C52.9708736,25.0997661 48.0593953,29.999968 41.9999678,29.999968 C35.9405404,30.0144763 31.014531,25.0997661 31,19.0363515 C31.014531,19.0072704 31.014531,18.9927298 31.014531,18.9636487 Z M47.3619072,18.9636487 C47.3619072,15.9537522 44.978823,13.4382349 42.0144988,13.4382349 C39.0065816,13.4382349 36.7106834,15.9392116 36.7106834,18.9636487 C36.7106834,21.9880857 39.0065816,24.4890625 42.0144988,24.4890625 C44.978823,24.4890625 47.3619072,21.9735452 47.3619072,18.9636487 L47.3619072,18.9636487 Z" id="Shape"></path>
                    <path d="M79,8.42818792 L84.8727811,8.42818792 L84.8727811,10.8496644 C86.2485207,9.07785235 88.3786982,8 90.8343195,8 C95.9378698,8 99,11.2778523 99,16.8442953 L99,30 L93.0088757,30 L93.0088757,17.6268456 C93.0088757,14.7328859 91.6627219,13.0496644 89.0295858,13.0496644 C86.7810651,13.0496644 84.9171598,14.6 84.9171598,18.2174497 L84.9171598,30 L79,30 L79,8.42818792 Z" id="Path"></path>
                    <path d="M130,19.5 C130,11.6769737 135.656958,8 140.569579,8 C143.398058,8 145.616181,9.05921053 147.045307,10.6026316 L147.045307,8.45394737 L153,8.45394737 L153,30.5611842 L147.045307,30.5611842 L147.045307,28.0796053 C145.616181,29.8046053 143.308738,31 140.480259,31 C135.865372,30.9848684 130,27.2776316 130,19.5 Z M147.209132,19.4546053 C147.209132,16.1861842 144.856958,13.5380903 141.641424,13.5380903 C138.351456,13.5230263 135.820712,16.05 135.820712,19.4546053 C135.820712,22.8592105 138.33657,25.4164474 141.641424,25.4164474 C144.871845,25.4164474 147.223948,22.7230263 147.209132,19.4546053 L147.209132,19.4546053 Z" id="Shape"></path>
                    <path d="M155.015521,8.42818792 L161.177384,8.42818792 L161.177384,10.8496644 C162.620843,9.07785235 164.855876,8 167.432373,8 C172.78714,8 176,11.2778523 176,16.8442953 L176,30 L169.698448,30 L169.698448,17.6268456 C169.698448,14.7328859 168.301552,13.0496644 165.523282,13.0496644 C163.16408,13.0496644 161.208426,14.6 161.208426,18.2174497 L161.208426,30 L155,30 L155.015521,8.42818792 Z" id="Path"></path>
                    <polyline id="Path" points="110 30 110 24.8794521 121.770115 14.0773973 110.168582 14.0773973 110.168582 9 130 9 130 14.1636986 118.229885 24.9226027"></polyline>
                    <path d="M23.5330285,19.3285372 L23.4593496,19.5069544 C21.8384146,22.971223 18.8323171,24.9486811 15.2367886,24.9486811 C10.0203252,24.9486811 5.95325203,20.8004796 5.95325203,15.4925659 C5.95325203,10.0508393 10.0055894,5.96211031 15.3694106,5.96211031 C18.8470528,5.96211031 21.4847561,7.61247002 23.2235772,10.853717 L23.3119919,11.0321343 L28.5579268,7.64220624 L28.4695122,7.49352518 C25.7433943,2.79520384 20.8511179,0 15.3694106,0 C6.61636179,0 0,6.66091127 0,15.5074341 C0,24.4877698 6.45426829,31 15.3546748,31 C21.0868902,31 26.1559959,27.7884892 28.9115854,22.406235 L29,22.2426859 L23.5330285,19.3285372 Z" id="Path"></path>
                    <path d="M55,19.4259681 C55,11.653303 60.6569579,8 65.5695793,8 C68.3980583,8 70.6161812,9.18769932 72.0453074,10.8113895 L72.0453074,8.45102506 L78,8.45102506 L78,29.7995444 C78,35.9936219 74.1294498,41 66.7754045,41 C61.2524272,41 57.2032362,38.0984055 55.4614887,34.670615 L60.7165049,31.6788155 C61.8478964,33.9640091 63.8427184,35.4072893 66.7605178,35.4072893 C69.9760518,35.4072893 72.015534,32.8665148 72.015534,30.0100228 L72.015534,27.9503417 C70.5864078,29.6642369 68.2789644,30.8519362 65.4504854,30.8519362 C60.8653722,30.8369021 55,27.1535308 55,19.4259681 Z M72.2239482,19.3808656 C72.2239482,16.1334852 69.8718447,13.5025057 66.6563107,13.5025057 C63.3514563,13.5025057 60.8355987,15.9981777 60.8355987,19.3808656 C60.8355987,22.7635535 63.3514563,25.304328 66.6563107,25.304328 C69.8718447,25.304328 72.2239482,22.628246 72.2239482,19.3808656 L72.2239482,19.3808656 Z" id="Shape"></path>
                    <path d="M191,14.5587024 L191,9.19773429 L187.130952,9.19773429 L187.130952,2 L181.503247,2 L181.503247,9.19773429 L178,9.19773429 L178,14.5587024 L181.489177,14.5587024 L181.489177,21.5324408 C181.489177,28.6405767 183.627706,31 190.155844,31 L190.971861,31 L190.971861,25.415036 C187.524892,25.415036 187.102814,24.892379 187.102814,21.4876416 L187.102814,14.5587024 L191,14.5587024 Z" id="Path"></path>
                </g>
            </g>
        </g>
    </g>
</svg>